<svg xmlns="http://www.w3.org/2000/svg" xmlns:xlink="http://www.w3.org/1999/xlink" width="57.8" height="53.9">
  <defs>
    <linearGradient id="a" x1="-.3" x2=".9" y1="-1.6" y2="2.1" gradientUnits="objectBoundingBox">
      <stop offset="0" stop-color="#fff"/>
      <stop offset="1" stop-color="#3ca5dc"/>
    </linearGradient>
    <linearGradient id="b" x1="-.3" x2=".7" y1="-1.2" y2=".7" xlink:href="#a"/>
    <linearGradient id="c" x1="1" x2="-.2" y1="-568.7" y2="-568.7" gradientUnits="objectBoundingBox">
      <stop offset="0" stop-color="#fff"/>
      <stop offset="1"/>
    </linearGradient>
  </defs>
  <g data-name="Group 3118">
    <path fill="url(#a)" d="M1439.2 1557.3v4.3H1407v-4.3a11.2 11.2 0 0111.2-11.2h9.6a11.2 11.2 0 0111.3 11.2z" data-name="Path 3767" transform="translate(-1401.5 -1546)"/>
    <path fill="url(#b)" d="M1444 1576v.3a3.6 3.6 0 01-2.3 3.4 5 5 0 00-2.3 1.8l-.2.2a5.1 5.1 0 00-.7 1.5l-.6 2.5a6.7 6.7 0 01-3.8 4.5 8 8 0 01-3 .8c-2.6 0-4.8-1-5.7-2.5h-4.8c-.9 1.5-3 2.5-5.7 2.5a6.7 6.7 0 01-2-.4 6.7 6.7 0 01-4.5-5.4l-.2-1.6a4.9 4.9 0 00-1-2.2 5.2 5.2 0 00-2.4-1.7 4 4 0 01-2.6-3.8 6 6 0 01.6-2.5 6.3 6.3 0 011.5-2 4.3 4.3 0 001.6-4l-.6-3.9a2.6 2.6 0 012.7-2.6h30.1a2.6 2.6 0 012.6 2.6l-.5 3.8a4.3 4.3 0 001.6 4 6.5 6.5 0 012.3 4.7z" data-name="Path 3768" transform="translate(-1401.5 -1546)"/>
    <g data-name="Group 3096">
      <path fill="#fff" d="M28.6 30l-6-1.7a3.4 3.4 0 00-1-.2 3.3 3.3 0 00-1.1.2l-5.9 1.8a.2.2 0 01-.1-.4l5.4-3.4a3.3 3.3 0 013.5 0l5.3 3.3a.2.2 0 010 .4z" data-name="Path 3769"/>
    </g>
    <g data-name="Group 3097">
      <path fill="#002d41" d="M28.6 30l-6-1.9a3.4 3.4 0 00-1-.1 3.3 3.3 0 00-1 .1l-6 2a.2.2 0 01-.1-.4l5.4-3.4a3.3 3.3 0 013.5 0l5.3 3.3a.2.2 0 010 .4z" data-name="Path 3770"/>
    </g>
    <g data-name="Group 3101">
      <g data-name="Group 3098">
        <path fill="#002d41" d="M21.6 41.2a.5.5 0 01-.5-.5v-7a.5.5 0 011 0v7a.5.5 0 01-.5.5z" data-name="Path 3771"/>
      </g>
      <g data-name="Group 3099">
        <path fill="#002d41" d="M19.6 39.7a.5.5 0 01-.5-.5v-4a.5.5 0 011 0v4a.5.5 0 01-.5.5z" data-name="Path 3772"/>
      </g>
      <g data-name="Group 3100">
        <path fill="#002d41" d="M23.6 39.7a.5.5 0 01-.5-.5v-4a.5.5 0 011 0v4a.5.5 0 01-.5.5z" data-name="Path 3773"/>
      </g>
    </g>
    <g data-name="Group 3110">
      <g data-name="Group 3102">
        <path fill="#002d41" d="M39.7 28.5a.5.5 0 01-.2 0l-2.7-1.3a.5.5 0 11.5-.9l2.6 1.2a.5.5 0 01-.2 1z" data-name="Path 3774"/>
      </g>
      <g data-name="Group 3103">
        <path fill="#002d41" d="M39 30a.5.5 0 01-.2-.1l-2.6-1.2a.5.5 0 11.4-1l2.6 1.3a.5.5 0 01-.2 1z" data-name="Path 3775"/>
      </g>
      <g data-name="Group 3104">
        <path fill="#002d41" d="M38.4 31.4a.5.5 0 01-.2 0L35.5 30a.5.5 0 11.4-.9l2.7 1.2a.5.5 0 01-.2 1z" data-name="Path 3776"/>
      </g>
      <g data-name="Group 3105">
        <path fill="#002d41" d="M37.7 32.8a.5.5 0 01-.2 0l-2.6-1.2a.5.5 0 01.4-1l2.6 1.3a.5.5 0 01-.2 1z" data-name="Path 3777"/>
      </g>
      <g data-name="Group 3106">
        <path fill="#002d41" d="M3.5 28.5a.5.5 0 01-.2-1l2.6-1.2a.5.5 0 11.4 1l-2.6 1.1a.5.5 0 01-.2 0z" data-name="Path 3778"/>
      </g>
      <g data-name="Group 3107">
        <path fill="#002d41" d="M4.1 30a.5.5 0 01-.2-1l2.7-1.2a.5.5 0 01.4.9l-2.7 1.2a.5.5 0 01-.2 0z" data-name="Path 3779"/>
      </g>
      <g data-name="Group 3108">
        <path fill="#002d41" d="M4.8 31.4a.5.5 0 01-.2-1l2.6-1.2a.5.5 0 01.5 1L5 31.3a.5.5 0 01-.2 0z" data-name="Path 3780"/>
      </g>
      <g data-name="Group 3109">
        <path fill="#002d41" d="M5.5 32.8a.5.5 0 01-.2-1l2.6-1.1a.5.5 0 01.4.9l-2.6 1.2a.5.5 0 01-.2 0z" data-name="Path 3781"/>
      </g>
    </g>
    <g data-name="Group 3113">
      <g data-name="Group 3111">
        <path fill="#fff" d="M18.4 17.6l-8.3 4.8a.5.5 0 01-.3 0 .5.5 0 01-.3 0A6.6 6.6 0 018 20.1a10.4 10.4 0 01-.6-2.7.5.5 0 01.5-.6l10.2-.2a.5.5 0 01.2.9z" data-name="Path 3782"/>
      </g>
      <g data-name="Group 3112">
        <path fill="#fff" d="M35.7 17.5a11 11 0 01-.7 2.8 6.5 6.5 0 01-1.3 2 .5.5 0 01-.4.2.5.5 0 01-.2-.1l-8.3-4.8a.5.5 0 01.2-1l10.2.3a.5.5 0 01.4.2.6.6 0 01.1.4z" data-name="Path 3783"/>
      </g>
    </g>
    <g data-name="Group 3116">
      <g data-name="Group 3114">
        <path fill="#002d41" d="M18.4 17.6L10 22.2a.5.5 0 01-.2 0 .5.5 0 01-.4 0A6.5 6.5 0 018 20a10.3 10.3 0 01-.6-2.8.5.5 0 01.5-.5h10.3a.5.5 0 01.2 1z" data-name="Path 3784"/>
      </g>
      <g data-name="Group 3115">
        <path fill="#002d41" d="M35.8 17.2a11 11 0 01-.6 2.8 6.5 6.5 0 01-1.4 2.1.5.5 0 01-.3.2.5.5 0 01-.2 0l-8.6-4.7a.5.5 0 01.3-1h10.3a.5.5 0 01.3.2.5.5 0 01.2.4z" data-name="Path 3785"/>
      </g>
    </g>
    <g fill="#002d41" data-name="Group 3117">
      <path d="M14 38.4c-1.4-1.4-4.2.2-4.2 1.6s1.6 2.5 3.7 2.5S17 41.4 17 40s-1.4 0-3-1.6zm0 3a1 1 0 111-.8 1 1 0 01-1 .9z" data-name="Path 3786"/>
      <path d="M26 40c0 1.4 1.7 2.5 3.7 2.5s3.7-1.1 3.7-2.5-2.9-3-4.3-1.6c-1.6 1.7-3 .2-3 1.6zm2.2.6a1 1 0 11.9.9 1 1 0 01-1-1z" data-name="Path 3787"/>
    </g>
    <path fill="#002d41" d="M37.6 11.2v2.2l-8.5.2s.2-9.3-2-11.7C26.2.7 24.5.2 22.8 0h3.7a11.2 11.2 0 0111.2 11.2z" data-name="Path 3788" opacity=".3" style="isolation:isolate"/>
    <path fill="#c3d2dc" d="M5.6 12.7h32v2.6h-32z" data-name="Rectangle 1899"/>
    <path fill="#002d41" d="M5.6 12h32v2.8h-32z" data-name="Rectangle 1900"/>
    <path fill="#002d41" d="M42.5 29.9v.3a3.6 3.6 0 01-2.3 3.4 5 5 0 00-2.4 1.8l-.1.2a5.1 5.1 0 00-.7 1.6l-.7 2.5a6.7 6.7 0 01-3.7 4.4 8 8 0 01-3 .8c-2.6 0-4.8-1-5.8-2.5H22l1-.4a4.7 4.7 0 001.4-.8 6 6 0 00.9-2.1c.3-1 .8-1.4 2.1-1.8.2 0 .5-.8.5-1a4.5 4.5 0 00-2.1-4 .5.5 0 01.3-.9 26 26 0 015 1.8.5.5 0 00.6-.2c.8-1.2.5-1 .4-2.2 0-1.5-2.2-3.7-2.8-4.3a.5.5 0 01-.2-.3V15.4a.5.5 0 01.5-.5h7a2.6 2.6 0 012.6 2.6l-.5 3.3a4.7 4.7 0 001.6 4.4 6.4 6.4 0 012.2 4.7z" data-name="Path 3789" opacity=".3" style="isolation:isolate"/>
  </g>
  <path fill="url(#c)" d="M1416.5 1598.2c12.2-1.3 42.9 1.8 42.9 1.8h-57.9s2.9-.6 15-1.8z" data-name="Path 3790" opacity=".8" style="isolation:isolate" transform="translate(-1401.5 -1546)"/>
</svg>